<?xml version="1.0" encoding="UTF-8" standalone="no"?><!DOCTYPE svg PUBLIC "-//W3C//DTD SVG 1.1//EN" "http://www.w3.org/Graphics/SVG/1.1/DTD/svg11.dtd"><svg width="100%" height="100%" viewBox="0 0 417 64" version="1.1" xmlns="http://www.w3.org/2000/svg" xmlns:xlink="http://www.w3.org/1999/xlink" xml:space="preserve" xmlns:serif="http://www.serif.com/" style="fill-rule:evenodd;clip-rule:evenodd;stroke-linejoin:round;stroke-miterlimit:2;"><path d="M416.667,61.508l-0.001,1.981c-15.008,0.116 -33.982,-1.829 -62.664,-11.123c-46.932,-15.209 -92.545,-40.872 -132.51,-45.85c-16.281,-2.028 -34.818,-1.112 -68.44,10.81c-47.255,16.757 -98.539,45.113 -148.771,46.115c-1.467,0.029 -3.935,0.045 -4.277,0.048l-0.004,-1.984c3.096,-0.021 15.815,-0.106 35.012,-4.624c48.762,-11.476 97.815,-41.488 142.219,-52.628c20.892,-5.242 34.043,-4.269 37.81,-4.017c35.898,2.399 74.866,22.667 115.781,39.51c15.204,6.258 33.028,12.995 51.26,17.258c17.723,4.143 29.459,4.401 34.585,4.504Z"/></svg>