<?xml version="1.0" encoding="UTF-8" standalone="no"?>
<!DOCTYPE svg PUBLIC "-//W3C//DTD SVG 1.1//EN" "http://www.w3.org/Graphics/SVG/1.1/DTD/svg11.dtd">
<svg width="100%" height="100%" viewBox="0 0 881 135" version="1.1" xmlns="http://www.w3.org/2000/svg" xmlns:xlink="http://www.w3.org/1999/xlink" xml:space="preserve" xmlns:serif="http://www.serif.com/" style="fill-rule:evenodd;clip-rule:evenodd;stroke-linejoin:round;stroke-miterlimit:2;">
    <g transform="matrix(1,0,0,1,-23392.6,-12419.8)">
        <g transform="matrix(1.732,0,0,0.123153,-24864.4,12391.8)">
            <g transform="matrix(0.577367,0,0,8.12,14352.2,-100987)">
                <path d="M24279,12594.7L24279,12598.9C24247.3,12599.2 24207.2,12595.1 24146.7,12575.4C24047.5,12543.3 23951.2,12489.1 23866.8,12478.6C23832.4,12474.3 23793.3,12476.2 23722.2,12501.4C23622.4,12536.8 23514.1,12596.7 23408,12598.8C23404.9,12598.9 23399.7,12598.9 23399,12598.9L23399,12594.7C23405.5,12594.7 23432.4,12594.5 23472.9,12585C23575.9,12560.7 23679.5,12497.3 23773.3,12473.8C23817.4,12462.7 23845.2,12464.8 23853.2,12465.3C23929,12470.4 24011.3,12513.2 24097.7,12548.8C24129.8,12562 24167.5,12576.2 24206,12585.2C24243.4,12594 24268.2,12594.5 24279,12594.7Z"/>
            </g>
        </g>
    </g>
</svg>
