<?xml version="1.0" encoding="UTF-8" standalone="no"?>
<!DOCTYPE svg PUBLIC "-//W3C//DTD SVG 1.1//EN" "http://www.w3.org/Graphics/SVG/1.1/DTD/svg11.dtd">
<svg width="100%" height="100%" viewBox="0 0 203 33" version="1.1" xmlns="http://www.w3.org/2000/svg" xmlns:xlink="http://www.w3.org/1999/xlink" xml:space="preserve" xmlns:serif="http://www.serif.com/" style="fill-rule:evenodd;clip-rule:evenodd;stroke-linejoin:round;stroke-miterlimit:2;">
    <g transform="matrix(1,0,0,1,-24234.6,-13158.6)">
        <g transform="matrix(0.266667,0,0,0.123153,16813.1,13000)">
            <g transform="matrix(15.0001,0,0,32.4802,-336831,-426500)">
                <path d="M24311,13178.7L24311,13178.5C24317.6,13178.3 24323.7,13173.8 24330.4,13171.7C24336.1,13169.9 24339.9,13170.7 24346.7,13173.7C24350,13175.2 24353.2,13176.9 24356.5,13177.8C24358.9,13178.4 24360.4,13178.5 24361,13178.5L24361,13178.7C24356.9,13178.7 24353.3,13177.2 24348.4,13175.1C24343,13172.7 24338.8,13171 24334.1,13171.6C24329.7,13172.1 24325.3,13174.4 24320.9,13176.3C24316.1,13178.3 24313.6,13178.7 24311,13178.7Z"/>
            </g>
        </g>
    </g>
</svg>
