<?xml version="1.0" encoding="UTF-8" standalone="no"?>
<!DOCTYPE svg PUBLIC "-//W3C//DTD SVG 1.1//EN" "http://www.w3.org/Graphics/SVG/1.1/DTD/svg11.dtd">
<svg width="100%" height="100%" viewBox="0 0 324 324" version="1.1" xmlns="http://www.w3.org/2000/svg" xmlns:xlink="http://www.w3.org/1999/xlink" xml:space="preserve" xmlns:serif="http://www.serif.com/" style="fill-rule:evenodd;clip-rule:evenodd;stroke-linejoin:round;stroke-miterlimit:2;">
    <g transform="matrix(1,0,0,1,-395,0)">
        <g id="Offset-Signature" serif:id="Offset Signature" transform="matrix(0.79803,0,0,0.850394,58.2315,-360.567)">
            <rect x="422" y="424" width="406" height="381" style="fill:none;"/>
            <g transform="matrix(1.25309,0,0,1.17593,-674.386,380.277)">
                <path d="M962.009,273.665C940.462,293.998 920.758,311.386 906.526,322.59C906.412,322.679 905.393,323.482 905.07,323.657C902.699,324.948 899.667,323.629 898.994,321.014C898.451,318.904 899.751,317.38 899.958,317.136C901.608,315.202 906.127,310.523 906.674,309.958C923.166,292.883 941.751,277.526 960.392,264.066C981.471,244.163 1002.28,223.365 1018.97,205.865C1074.87,147.27 1101.36,109.554 1101.36,95.989C1101.36,93.734 1100.81,91.766 1095.87,91.561C1092.08,91.404 1080.14,91.707 1041.47,111.052C937.466,163.081 893.931,233.621 919.992,255.163C926.989,260.947 937.139,262.483 946.06,262.681C947.392,262.711 947.454,262.741 948.379,263.7C948.39,263.712 949.312,266.058 949.308,266.067C948.971,266.838 948.897,267.794 948.291,268.378C947.163,269.465 947.03,269.334 945.468,269.299C909.677,268.483 898.144,246.335 910.904,216.295C927.263,177.783 980.762,130.272 1055.19,96.497C1084.71,83.103 1101.43,80.482 1107.06,89.493C1111.11,95.993 1110.67,110.109 1074.51,154.92C1053.51,180.942 1025.04,211.546 996.508,240.114C1033.38,217.581 1064.81,203.64 1072.81,199.853C1072.92,199.801 1073.85,199.364 1074.22,199.259C1076.02,198.754 1078.09,199.431 1079.24,200.906C1080.51,202.54 1080.79,205.409 1078.61,207.402C1078.25,207.729 1074.8,210.67 1070.05,215.022C1067.18,217.65 1056.34,227.774 1048.08,235.49C1051.98,235.236 1054.81,234.931 1061.34,234.511C1076.97,233.507 1088.02,234.897 1097.48,253.826C1100.62,260.112 1101.93,264.684 1102.86,266.275C1105.63,271.023 1112.13,272.37 1113.18,272.797C1127.35,278.581 1150.39,276.689 1158.91,275.962C1172.3,274.819 1183.72,272.557 1187.85,271.709C1190.12,271.242 1193.81,270.215 1193.86,270.222C1194.7,270.339 1195.66,270.146 1196.4,270.578C1196.42,270.587 1197.97,272.633 1197.97,272.642C1197.85,273.491 1198.04,274.449 1197.61,275.189C1197.18,275.929 1196.3,276.306 1195.57,276.75C1195.46,276.817 1190.93,277.934 1190.53,278.034C1188.83,278.454 1168.44,284.373 1150.8,287.099C1129.54,290.384 1116.9,289.465 1108.61,287.406C1107.96,287.246 1101.84,285.216 1097.01,281.203C1090.13,275.495 1089.14,269.837 1087.71,265.569C1084,254.52 1080.91,251.154 1078.97,249.41C1074.73,245.89 1070.01,245.499 1057.66,245.829C1050.59,246.018 1044.64,246.256 1035.81,245.962C1035.67,245.958 1034.46,245.918 1034.08,245.846C1033.7,245.773 1031.35,245.325 1030.37,242.729C1029.78,241.183 1029.96,238.927 1031.64,237.329C1032.08,236.915 1032.11,236.945 1037.21,232.249C1041.7,228.117 1045.42,224.689 1048.55,221.806C1025.74,233.156 993.569,250.679 962.009,273.665Z"/>
            </g>
        </g>
    </g>
</svg>
